@startuml

'classes

class Academia {
    - nome: String
}

class Plano {
    - id: Long
    - nome: String
    - maxAlunos: Integer
    - maxProfessores: Integer
    - precoMensal: Double
    - descontoAnual: Double
}


' class Assinatura {
'     - id: Long
'     - inicio: LocalDate
'     - fim: LocalDate
' }


abstract class Pagamento {
    - id: Long
    - nome: String
    - dataHora: LocalDateTime
}

class Pix extends Pagamento {
    - chavePix: String
    ' id de transação PIX
    - e2eId: String
}


class Cartao extends Pagamento {
    - bandeira: String
    - numero: String
    - titular: String
    - validadeMMYY: String
    - tokenTransacao: String
}


class Boleto extends Pagamento {
    - codigoBarras: String
    - dataValidade: LocalDate
}


' class Fatura {
'     - id: Long
'     - periodoInicio: Date
'     - periodoFim: Date
'     - valor: Double
'     - vencimento: Date
' }


class Aluno {
    - id: Integer
    - nome: String
    - sobrenome: String
    - dataNascimento: LocalDate
    - cpf: String
    - email: String
}

class Professor {
    - id: Integer
    - nome: String
    - sobrenome: String
    - dataNascimento: LocalDate
    - cpf: String
    - telefone: String
    - email: String
}

class Turma {
    - id: Integer
    - nome: String
}

class Horario {
    - horaInicial: LocalTime
    - horaFinal: LocalTime
}

enum DiaSemana {
    -  SEGUNDA:int
    -  TERCA:int
    -  QUARTA:int
    -  QUINTA:int
    -  SEXTA:int
    -  SABADO:int
    -  DOMINGO:int
}

class Frequencia {
    - id: Integer
    - data: Date
    - presente: boolean
}

class Telefone {
    - codigoArea: String
    - numero: String
}

class Endereco {
    - logradouro: String
    - numero: String
    - complemento: String
    - bairro: String
    - cep: String
}

class Estado {
    - nome: String
    - sigla: String
}

class Municipio {
    - nome: String
}

class Faixa {
    - nome: String
    - idadeMinima: Integer
}

class Graduacao {
    - data: LocalDate
    - professor: String
    - academia: String
}

class PlanoAula {
    - nome: String
    - descricao: String

}

class Tecnica {
    - nome: String
    - descricao: String
    - urlVideo: String
}

class Aula {
    - nome: String
}

class Pedido {
    - data: LocalDateTime
    - total: Double
    ' - cupom: CupomDesconto
}

class ItemPedido {
    - quantidade: Integer
    - preco: Double
    - desconto: Double
}

'relacionamentos
Turma "1" *--> "*"  Horario
Turma "*" --> "*" Professor

Frequencia "*" --> "1" Aluno
Frequencia "*" --> "1" Turma

Municipio "*" --> "1" Estado

Endereco "*" --> "1" Municipio

Aluno "1" *--> "*" Telefone
Aluno "*" --> "1" Municipio: naturalidade
Aluno "1" *--> "1" Endereco

Professor "1" *--> "*" Telefone

Horario "*" --> "1" DiaSemana
Horario "*" --> "1" Professor

Graduacao "*" --> "1" Faixa
Graduacao "*" --> "1" Aluno

PlanoAula "*" --> "1" Faixa
PlanoAula "1" *--> "*" Aula

Aula "*" o--> "*" Tecnica

Pedido "*" --> "1" Usuario
Pedido "1" --> "1" Pagamento
Pedido "1" *--> "*" ItemPedido

ItemPedido "*" --> "1" Plano



' Academia "1" <-- "*" Assinatura
' Assinatura "*" --> "1" Plano
' Assinatura "1" o--> "*" Fatura
' Fatura "*" o--> "1" Plano
' Fatura "1" o--> "*" Pagamento

@enduml